<mxfile host="app.diagrams.net" modified="2023-11-07T15:58:43.894Z" agent="Mozilla/5.0 (Windows NT 10.0; Win64; x64) AppleWebKit/537.36 (KHTML, like Gecko) Chrome/119.0.0.0 Safari/537.36" etag="s4UGpOBTW9AR-lRl1JXt" version="22.0.8" type="device">
  <diagram name="Seite-1" id="olLa7vbDik81kaS_FiPz">
    <mxGraphModel dx="1050" dy="624" grid="1" gridSize="10" guides="1" tooltips="1" connect="1" arrows="1" fold="1" page="1" pageScale="1" pageWidth="827" pageHeight="1169" math="0" shadow="0">
      <root>
        <mxCell id="0" />
        <mxCell id="1" parent="0" />
        <mxCell id="CPkJA3RYDgQbdStg55cP-34" value="" style="rounded=0;whiteSpace=wrap;html=1;fillColor=#647687;fontColor=#ffffff;strokeColor=#314354;" vertex="1" parent="1">
          <mxGeometry x="350" y="160" width="260" height="30" as="geometry" />
        </mxCell>
        <mxCell id="CPkJA3RYDgQbdStg55cP-1" value="" style="rounded=0;whiteSpace=wrap;html=1;fillColor=#000000;" vertex="1" parent="1">
          <mxGeometry x="390" y="140" width="50" height="60" as="geometry" />
        </mxCell>
        <mxCell id="CPkJA3RYDgQbdStg55cP-2" value="" style="rounded=0;whiteSpace=wrap;html=1;fillColor=#f5f5f5;fontColor=#333333;strokeColor=#666666;" vertex="1" parent="1">
          <mxGeometry x="520" y="120" width="50" height="80" as="geometry" />
        </mxCell>
        <mxCell id="CPkJA3RYDgQbdStg55cP-33" value="" style="rounded=0;whiteSpace=wrap;html=1;fillColor=#d5e8d4;strokeColor=#82b366;" vertex="1" parent="1">
          <mxGeometry x="340" y="190" width="330" height="430" as="geometry" />
        </mxCell>
        <mxCell id="CPkJA3RYDgQbdStg55cP-3" value="" style="rounded=0;whiteSpace=wrap;html=1;fillColor=#999999;" vertex="1" parent="1">
          <mxGeometry x="360" y="220" width="30" height="130" as="geometry" />
        </mxCell>
        <mxCell id="CPkJA3RYDgQbdStg55cP-4" value="" style="rounded=0;whiteSpace=wrap;html=1;fillColor=#999999;" vertex="1" parent="1">
          <mxGeometry x="360" y="380" width="30" height="130" as="geometry" />
        </mxCell>
        <mxCell id="CPkJA3RYDgQbdStg55cP-5" value="" style="rounded=0;whiteSpace=wrap;html=1;fillColor=#999999;" vertex="1" parent="1">
          <mxGeometry x="620" y="380" width="30" height="130" as="geometry" />
        </mxCell>
        <mxCell id="CPkJA3RYDgQbdStg55cP-9" value="5V" style="whiteSpace=wrap;html=1;aspect=fixed;fillColor=#FF0303;" vertex="1" parent="1">
          <mxGeometry x="420" y="520" width="30" height="30" as="geometry" />
        </mxCell>
        <mxCell id="CPkJA3RYDgQbdStg55cP-10" value="5V" style="whiteSpace=wrap;html=1;aspect=fixed;fillColor=#FF0303;" vertex="1" parent="1">
          <mxGeometry x="470" y="520" width="30" height="30" as="geometry" />
        </mxCell>
        <mxCell id="CPkJA3RYDgQbdStg55cP-11" value="5V" style="whiteSpace=wrap;html=1;aspect=fixed;fillColor=#FF0303;" vertex="1" parent="1">
          <mxGeometry x="520" y="520" width="30" height="30" as="geometry" />
        </mxCell>
        <mxCell id="CPkJA3RYDgQbdStg55cP-12" value="5V" style="whiteSpace=wrap;html=1;aspect=fixed;fillColor=#FF0303;" vertex="1" parent="1">
          <mxGeometry x="570" y="520" width="30" height="30" as="geometry" />
        </mxCell>
        <mxCell id="CPkJA3RYDgQbdStg55cP-17" value="" style="whiteSpace=wrap;html=1;aspect=fixed;fillColor=#030303;" vertex="1" parent="1">
          <mxGeometry x="420" y="550" width="30" height="30" as="geometry" />
        </mxCell>
        <mxCell id="CPkJA3RYDgQbdStg55cP-18" value="" style="whiteSpace=wrap;html=1;aspect=fixed;fillColor=#030303;" vertex="1" parent="1">
          <mxGeometry x="470" y="550" width="30" height="30" as="geometry" />
        </mxCell>
        <mxCell id="CPkJA3RYDgQbdStg55cP-19" value="" style="whiteSpace=wrap;html=1;aspect=fixed;fillColor=#030303;" vertex="1" parent="1">
          <mxGeometry x="520" y="550" width="30" height="30" as="geometry" />
        </mxCell>
        <mxCell id="CPkJA3RYDgQbdStg55cP-20" value="" style="whiteSpace=wrap;html=1;aspect=fixed;fillColor=#030303;" vertex="1" parent="1">
          <mxGeometry x="570" y="550" width="30" height="30" as="geometry" />
        </mxCell>
        <mxCell id="CPkJA3RYDgQbdStg55cP-21" value="14" style="whiteSpace=wrap;html=1;aspect=fixed;" vertex="1" parent="1">
          <mxGeometry x="420" y="580" width="30" height="30" as="geometry" />
        </mxCell>
        <mxCell id="CPkJA3RYDgQbdStg55cP-22" value="27" style="whiteSpace=wrap;html=1;aspect=fixed;" vertex="1" parent="1">
          <mxGeometry x="470" y="580" width="30" height="30" as="geometry" />
        </mxCell>
        <mxCell id="CPkJA3RYDgQbdStg55cP-23" value="16" style="whiteSpace=wrap;html=1;aspect=fixed;" vertex="1" parent="1">
          <mxGeometry x="520" y="580" width="30" height="30" as="geometry" />
        </mxCell>
        <mxCell id="CPkJA3RYDgQbdStg55cP-24" value="17" style="whiteSpace=wrap;html=1;aspect=fixed;" vertex="1" parent="1">
          <mxGeometry x="570" y="580" width="30" height="30" as="geometry" />
        </mxCell>
        <mxCell id="CPkJA3RYDgQbdStg55cP-25" value="&lt;font style=&quot;font-size: 21px;&quot;&gt;&lt;b&gt;&lt;i&gt;SENSOREN&lt;/i&gt;&lt;/b&gt;&lt;/font&gt;" style="text;html=1;strokeColor=none;fillColor=none;align=center;verticalAlign=middle;whiteSpace=wrap;rounded=0;" vertex="1" parent="1">
          <mxGeometry x="450" y="610" width="110" height="30" as="geometry" />
        </mxCell>
        <mxCell id="CPkJA3RYDgQbdStg55cP-26" value="3V" style="whiteSpace=wrap;html=1;aspect=fixed;fillColor=#FF0303;" vertex="1" parent="1">
          <mxGeometry x="440" y="240" width="30" height="30" as="geometry" />
        </mxCell>
        <mxCell id="CPkJA3RYDgQbdStg55cP-27" value="" style="whiteSpace=wrap;html=1;aspect=fixed;fillColor=#030303;" vertex="1" parent="1">
          <mxGeometry x="440" y="270" width="30" height="30" as="geometry" />
        </mxCell>
        <mxCell id="CPkJA3RYDgQbdStg55cP-28" value="26" style="whiteSpace=wrap;html=1;aspect=fixed;" vertex="1" parent="1">
          <mxGeometry x="440" y="300" width="30" height="30" as="geometry" />
        </mxCell>
        <mxCell id="CPkJA3RYDgQbdStg55cP-29" value="3V" style="whiteSpace=wrap;html=1;aspect=fixed;fillColor=#FF0303;" vertex="1" parent="1">
          <mxGeometry x="530" y="240" width="30" height="30" as="geometry" />
        </mxCell>
        <mxCell id="CPkJA3RYDgQbdStg55cP-30" value="" style="whiteSpace=wrap;html=1;aspect=fixed;fillColor=#030303;" vertex="1" parent="1">
          <mxGeometry x="530" y="270" width="30" height="30" as="geometry" />
        </mxCell>
        <mxCell id="CPkJA3RYDgQbdStg55cP-31" value="25" style="whiteSpace=wrap;html=1;aspect=fixed;" vertex="1" parent="1">
          <mxGeometry x="530" y="300" width="30" height="30" as="geometry" />
        </mxCell>
        <mxCell id="CPkJA3RYDgQbdStg55cP-32" value="&lt;font style=&quot;font-size: 21px;&quot;&gt;&lt;b&gt;&lt;i&gt;RELAIS&lt;/i&gt;&lt;/b&gt;&lt;/font&gt;" style="text;html=1;strokeColor=none;fillColor=none;align=center;verticalAlign=middle;whiteSpace=wrap;rounded=0;" vertex="1" parent="1">
          <mxGeometry x="440" y="340" width="110" height="30" as="geometry" />
        </mxCell>
      </root>
    </mxGraphModel>
  </diagram>
</mxfile>
